<svg width="152" height="160" viewBox="0 0 152 160" fill="none" xmlns="http://www.w3.org/2000/svg">
<rect width="151.091" height="159.594" fill="white"/>
<path d="M44.327 68.528C40.2273 72.6278 36.9752 77.4948 34.7565 82.8514C32.5377 88.2079 31.3957 93.949 31.3958 99.7469C31.3958 105.545 32.5377 111.286 34.7565 116.642C36.9752 121.999 40.2273 126.866 44.327 130.966L56.8146 118.478C54.3547 116.018 52.4035 113.098 51.0722 109.884C49.741 106.67 49.0558 103.226 49.0558 99.7469C49.0558 96.2682 49.741 92.8235 51.0722 89.6096C52.4035 86.3956 54.3547 83.4754 56.8145 81.0156L44.327 68.528Z" fill="#2388FF"/>
<path d="M106.765 91.0672C110.864 86.9675 114.116 82.1004 116.335 76.7439C118.554 71.3873 119.696 65.6462 119.696 59.8483C119.696 54.0505 118.554 48.3094 116.335 42.9528C114.116 37.5963 110.864 32.7292 106.765 28.6295L94.2772 41.117C96.737 43.5769 98.6882 46.4971 100.019 49.711C101.351 52.925 102.036 56.3696 102.036 59.8483C102.036 63.3271 101.351 66.7717 100.019 69.9857C98.6882 73.1996 96.737 76.1198 94.2772 78.5796L106.765 91.0672Z" fill="#FF912C"/>
<circle cx="75.2187" cy="99.4199" r="13.0815" fill="#2388FF"/>
<circle cx="75.2187" cy="59.521" r="13.0815" fill="#FF912C"/>
</svg>
