<svg width="372" height="231" viewBox="0 0 372 231" fill="none" xmlns="http://www.w3.org/2000/svg">
<rect x="185.259" y="122.236" width="184.618" height="83.0362" rx="10.1161" fill="#FF912C"/>
<path d="M340.372 230.351C337.422 230.351 335.525 205.272 319.086 205.272H349.434C333.417 205.272 343.323 230.351 340.372 230.351Z" fill="#FF912C"/>
<rect width="184.618" height="122.236" rx="10.1161" transform="matrix(-1 0 0 1 369.877 0)" fill="#2388FF"/>
<path d="M209.285 16.0627C209.285 17.8998 207.775 19.3891 205.913 19.3891C204.05 19.3891 202.541 17.8998 202.541 16.0627C202.541 14.2255 204.31 15.8067 206.172 15.8067C208.034 15.8067 209.285 14.2255 209.285 16.0627Z" fill="black"/>
<circle cx="344.377" cy="187.358" r="3.58278" fill="black"/>
<circle cx="357.865" cy="187.358" r="3.58278" fill="black"/>
<path d="M196.218 12.4343C196.218 10.4556 197.822 8.85156 199.801 8.85156C201.78 8.85156 203.384 10.4556 203.384 12.4343" stroke="black" stroke-width="1.68601" stroke-linecap="round"/>
<path d="M208.442 12.4343C208.442 10.4556 210.046 8.85156 212.025 8.85156C214.003 8.85156 215.607 10.4556 215.607 12.4343" stroke="black" stroke-width="1.68601" stroke-linecap="round"/>
<path d="M197.835 156.337H196.55L194.506 160.849L195.123 160.88L193.232 156.337H191.826L194.162 161.304L193.232 163.419H194.506L197.835 156.337ZM200.12 162.104H201.708V161.143H200.292L200.12 162.104ZM201.132 158.765V163.419H202.234V158.765H201.132ZM199.402 158.765H198.299V160.101C198.299 160.552 198.353 160.927 198.461 161.224C198.569 161.52 198.755 161.743 199.018 161.891C199.287 162.033 199.655 162.104 200.12 162.104L200.292 161.143C200.07 161.143 199.891 161.109 199.756 161.041C199.628 160.974 199.537 160.869 199.483 160.728C199.429 160.579 199.402 160.387 199.402 160.151V158.765ZM204.336 162.043C204.336 161.881 204.373 161.743 204.447 161.628C204.528 161.507 204.646 161.416 204.802 161.355C204.963 161.288 205.159 161.254 205.388 161.254C205.672 161.254 205.921 161.291 206.137 161.365C206.353 161.433 206.565 161.544 206.774 161.699V161.122C206.72 161.055 206.622 160.977 206.481 160.89C206.339 160.802 206.16 160.724 205.945 160.657C205.736 160.59 205.496 160.556 205.226 160.556C204.822 160.556 204.468 160.617 204.164 160.738C203.868 160.859 203.638 161.035 203.476 161.264C203.314 161.493 203.234 161.766 203.234 162.083C203.234 162.4 203.304 162.667 203.446 162.883C203.594 163.092 203.79 163.25 204.033 163.358C204.282 163.466 204.559 163.52 204.862 163.52C205.186 163.52 205.479 163.466 205.742 163.358C206.005 163.243 206.214 163.081 206.37 162.872C206.525 162.657 206.602 162.4 206.602 162.104L206.44 161.578C206.44 161.847 206.386 162.063 206.279 162.225C206.171 162.387 206.022 162.505 205.833 162.579C205.645 162.653 205.432 162.69 205.196 162.69C205.034 162.69 204.889 162.667 204.761 162.62C204.633 162.566 204.528 162.491 204.447 162.397C204.373 162.303 204.336 162.185 204.336 162.043ZM204.093 159.989C204.168 159.942 204.272 159.885 204.407 159.817C204.549 159.743 204.714 159.679 204.903 159.625C205.092 159.571 205.297 159.544 205.52 159.544C205.776 159.544 205.992 159.605 206.167 159.726C206.349 159.841 206.44 160.006 206.44 160.222V163.419H207.513V160.101C207.513 159.79 207.428 159.531 207.26 159.322C207.098 159.106 206.872 158.941 206.582 158.826C206.292 158.711 205.955 158.654 205.57 158.654C205.152 158.654 204.781 158.715 204.458 158.836C204.134 158.958 203.868 159.082 203.658 159.21L204.093 159.989ZM209.524 161.092C209.524 160.802 209.588 160.546 209.716 160.323C209.844 160.101 210.016 159.925 210.232 159.797C210.454 159.669 210.7 159.605 210.97 159.605C211.186 159.605 211.395 159.639 211.597 159.706C211.8 159.774 211.978 159.868 212.134 159.989C212.295 160.104 212.413 160.239 212.488 160.394V159.19C212.326 159.028 212.107 158.9 211.83 158.806C211.554 158.711 211.25 158.664 210.92 158.664C210.441 158.664 210.009 158.769 209.625 158.978C209.247 159.18 208.947 159.463 208.724 159.827C208.509 160.192 208.401 160.613 208.401 161.092C208.401 161.564 208.509 161.986 208.724 162.357C208.947 162.721 209.247 163.007 209.625 163.216C210.009 163.419 210.441 163.52 210.92 163.52C211.25 163.52 211.554 163.473 211.83 163.378C212.107 163.284 212.326 163.156 212.488 162.994V161.79C212.413 161.938 212.299 162.073 212.144 162.195C211.989 162.316 211.81 162.41 211.608 162.478C211.405 162.545 211.193 162.579 210.97 162.579C210.7 162.579 210.454 162.515 210.232 162.387C210.016 162.259 209.844 162.087 209.716 161.871C209.588 161.648 209.524 161.389 209.524 161.092ZM213.048 158.765V159.726H215.992V158.765H213.048ZM213.989 158.968V163.419H215.061V158.968H213.989ZM217.436 160.991V161.466H218.781C218.916 161.466 219.031 161.48 219.125 161.507C219.227 161.534 219.304 161.574 219.358 161.628C219.419 161.682 219.466 161.743 219.5 161.81C219.533 161.878 219.55 161.952 219.55 162.033C219.55 162.188 219.49 162.323 219.368 162.437C219.247 162.552 219.051 162.609 218.781 162.609H217.436V163.419H219.115C219.648 163.419 220.029 163.297 220.258 163.055C220.494 162.805 220.612 162.505 220.612 162.154C220.612 161.851 220.538 161.615 220.39 161.446C220.242 161.277 220.039 161.159 219.783 161.092C219.527 161.025 219.237 160.991 218.913 160.991H217.436ZM217.436 161.193H218.812C219.102 161.193 219.365 161.153 219.601 161.072C219.844 160.984 220.039 160.856 220.188 160.687C220.336 160.512 220.41 160.293 220.41 160.03C220.41 159.726 220.336 159.484 220.188 159.301C220.039 159.113 219.844 158.978 219.601 158.897C219.365 158.809 219.102 158.765 218.812 158.765H217.436V159.575H218.68C218.889 159.575 219.051 159.625 219.166 159.726C219.287 159.827 219.348 159.956 219.348 160.111C219.348 160.185 219.331 160.256 219.297 160.323C219.264 160.391 219.22 160.451 219.166 160.505C219.112 160.559 219.041 160.6 218.953 160.627C218.872 160.654 218.781 160.667 218.68 160.667H217.436V161.193ZM216.799 158.765V163.419H217.871V158.765H216.799ZM225.686 158.765H224.513L223.056 162.417L223.572 162.448L222.085 158.765H220.83L222.702 162.872L221.488 165.644H222.651L225.686 158.765ZM230.559 159.777L230.609 158.411L226.431 162.407L226.381 163.773L230.559 159.777ZM227.453 158.765H226.381V163.773L227.453 162.539V158.765ZM230.609 158.411L229.537 159.645V163.419H230.609V158.411ZM226.917 156.388C226.917 156.631 226.978 156.863 227.099 157.086C227.22 157.309 227.403 157.487 227.645 157.622C227.888 157.757 228.185 157.825 228.536 157.825C228.893 157.825 229.19 157.757 229.426 157.622C229.669 157.487 229.851 157.309 229.972 157.086C230.1 156.863 230.164 156.631 230.164 156.388H229.325C229.325 156.489 229.298 156.594 229.244 156.702C229.196 156.81 229.116 156.901 229.001 156.975C228.886 157.049 228.731 157.086 228.536 157.086C228.34 157.086 228.185 157.049 228.07 156.975C227.956 156.901 227.871 156.81 227.817 156.702C227.77 156.594 227.746 156.489 227.746 156.388H226.917ZM235.781 160.991V161.466H237.127C237.262 161.466 237.376 161.48 237.471 161.507C237.572 161.534 237.649 161.574 237.703 161.628C237.764 161.682 237.811 161.743 237.845 161.81C237.879 161.878 237.896 161.952 237.896 162.033C237.896 162.188 237.835 162.323 237.713 162.437C237.592 162.552 237.396 162.609 237.127 162.609H235.781V163.419H237.461C237.993 163.419 238.374 163.297 238.604 163.055C238.84 162.805 238.958 162.505 238.958 162.154C238.958 161.851 238.884 161.615 238.735 161.446C238.587 161.277 238.384 161.159 238.128 161.092C237.872 161.025 237.582 160.991 237.258 160.991H235.781ZM235.781 161.193H237.157C237.447 161.193 237.71 161.153 237.946 161.072C238.189 160.984 238.384 160.856 238.533 160.687C238.681 160.512 238.755 160.293 238.755 160.03C238.755 159.726 238.681 159.484 238.533 159.301C238.384 159.113 238.189 158.978 237.946 158.897C237.71 158.809 237.447 158.765 237.157 158.765H235.781V159.575H237.026C237.235 159.575 237.396 159.625 237.511 159.726C237.633 159.827 237.693 159.956 237.693 160.111C237.693 160.185 237.676 160.256 237.643 160.323C237.609 160.391 237.565 160.451 237.511 160.505C237.457 160.559 237.386 160.6 237.299 160.627C237.218 160.654 237.127 160.667 237.026 160.667H235.781V161.193ZM235.144 158.765V163.419H236.216V158.765H235.144ZM246.891 162.458V158.765H245.819V162.458H244.069V158.765H242.996V163.419H249.724V158.765H248.651V162.458H246.891ZM251.076 158.765V163.419H252.149V158.765H251.076ZM253.858 158.765L251.845 160.687L254.071 163.419H255.396L253.191 160.687L255.194 158.765H253.858ZM255.623 161.092C255.623 161.564 255.731 161.986 255.947 162.357C256.17 162.721 256.47 163.007 256.847 163.216C257.225 163.419 257.653 163.52 258.132 163.52C258.611 163.52 259.036 163.419 259.407 163.216C259.784 163.007 260.084 162.721 260.307 162.357C260.53 161.986 260.641 161.564 260.641 161.092C260.641 160.613 260.53 160.192 260.307 159.827C260.084 159.463 259.784 159.18 259.407 158.978C259.036 158.769 258.611 158.664 258.132 158.664C257.653 158.664 257.225 158.769 256.847 158.978C256.47 159.18 256.17 159.463 255.947 159.827C255.731 160.192 255.623 160.613 255.623 161.092ZM256.746 161.092C256.746 160.802 256.807 160.546 256.928 160.323C257.05 160.101 257.215 159.929 257.424 159.807C257.633 159.686 257.869 159.625 258.132 159.625C258.388 159.625 258.621 159.686 258.83 159.807C259.046 159.929 259.214 160.101 259.336 160.323C259.457 160.546 259.518 160.802 259.518 161.092C259.518 161.382 259.457 161.638 259.336 161.861C259.214 162.077 259.046 162.249 258.83 162.377C258.621 162.498 258.388 162.559 258.132 162.559C257.869 162.559 257.633 162.498 257.424 162.377C257.215 162.249 257.05 162.077 256.928 161.861C256.807 161.638 256.746 161.382 256.746 161.092ZM266.078 158.765H261.819V161.648C261.819 161.952 261.745 162.158 261.597 162.265C261.455 162.373 261.283 162.427 261.081 162.427V163.419C261.512 163.419 261.86 163.361 262.123 163.247C262.392 163.125 262.588 162.947 262.709 162.711C262.831 162.468 262.891 162.164 262.891 161.8V159.777H265.006V163.419H266.078V158.765ZM267.605 158.765V163.419H268.708V158.765H267.605ZM268.374 161.274H269.709C269.959 161.274 270.144 161.328 270.266 161.436C270.394 161.544 270.458 161.699 270.458 161.901C270.458 162.029 270.428 162.141 270.367 162.235C270.313 162.33 270.229 162.4 270.114 162.448C270.006 162.495 269.871 162.518 269.709 162.518H268.374V163.419H269.821C270.144 163.419 270.434 163.361 270.691 163.247C270.947 163.132 271.149 162.963 271.298 162.741C271.446 162.512 271.52 162.232 271.52 161.901C271.52 161.402 271.355 161.038 271.025 160.809C270.701 160.573 270.3 160.455 269.821 160.455H268.374V161.274ZM273.198 161.416H276.759V160.515H273.198V161.416ZM276.172 158.765V163.419H277.244V158.765H276.172ZM272.722 158.765V163.419H273.794V158.765H272.722ZM283.151 158.765V163.419H284.254V158.765H283.151ZM278.64 158.765V163.419H279.732V158.765H278.64ZM279.398 161.274H280.744C280.987 161.274 281.172 161.328 281.3 161.436C281.428 161.544 281.492 161.699 281.492 161.901C281.492 162.029 281.462 162.141 281.401 162.235C281.341 162.33 281.256 162.4 281.148 162.448C281.041 162.495 280.906 162.518 280.744 162.518H279.398V163.419H280.845C281.169 163.419 281.459 163.361 281.715 163.247C281.971 163.132 282.174 162.963 282.322 162.741C282.47 162.512 282.545 162.232 282.545 161.901C282.545 161.402 282.379 161.038 282.049 160.809C281.725 160.573 281.324 160.455 280.845 160.455H279.398V161.274ZM288.325 158.765L287.303 160.222L286.301 158.765H285.047L286.726 161.021L284.946 163.419H286.2L287.303 161.82L288.426 163.419H289.65L287.88 161.021L289.549 158.765H288.325ZM297.81 163.419H298.973L297.678 158.411L297.102 159.929L297.81 163.419ZM295.534 162.468L295.837 163.732L297.78 160.202L297.678 158.411L295.534 162.468ZM295.837 163.732L296.141 162.468L294.016 158.411L293.915 160.202L295.837 163.732ZM292.732 163.419H293.895L294.603 159.929L294.016 158.411L292.732 163.419ZM300.015 161.345H304.102C304.115 161.284 304.122 161.23 304.122 161.183C304.122 161.129 304.122 161.082 304.122 161.041C304.122 160.549 304.028 160.128 303.839 159.777C303.65 159.419 303.38 159.146 303.029 158.958C302.685 158.762 302.274 158.664 301.795 158.664C301.357 158.664 300.969 158.745 300.632 158.907C300.295 159.069 300.022 159.295 299.812 159.585C299.61 159.875 299.475 160.212 299.408 160.596C299.394 160.677 299.384 160.758 299.378 160.839C299.371 160.92 299.367 161.004 299.367 161.092C299.367 161.557 299.465 161.975 299.661 162.346C299.856 162.711 300.133 162.997 300.49 163.206C300.848 163.415 301.266 163.52 301.745 163.52C302.17 163.52 302.524 163.469 302.807 163.368C303.097 163.26 303.34 163.112 303.535 162.923C303.738 162.734 303.916 162.515 304.071 162.265L303.131 161.881C303.043 162.029 302.935 162.161 302.807 162.276C302.679 162.383 302.53 162.468 302.362 162.528C302.2 162.589 302.011 162.62 301.795 162.62C301.532 162.62 301.3 162.566 301.097 162.458C300.902 162.343 300.747 162.174 300.632 161.952C300.524 161.723 300.47 161.436 300.47 161.092L300.49 160.809C300.49 160.539 300.548 160.306 300.662 160.111C300.777 159.908 300.932 159.757 301.128 159.656C301.323 159.548 301.542 159.494 301.785 159.494C302.021 159.494 302.22 159.541 302.382 159.635C302.544 159.723 302.669 159.851 302.756 160.02C302.851 160.182 302.911 160.374 302.938 160.596H300.015V161.345ZM306.237 165.644V158.765H305.134V165.644H306.237ZM310.091 161.092C310.091 160.573 309.987 160.131 309.777 159.767C309.568 159.403 309.292 159.126 308.948 158.937C308.604 158.742 308.23 158.644 307.825 158.644C307.427 158.644 307.08 158.745 306.783 158.947C306.493 159.143 306.267 159.423 306.105 159.787C305.95 160.151 305.873 160.586 305.873 161.092C305.873 161.591 305.95 162.026 306.105 162.397C306.267 162.761 306.493 163.044 306.783 163.247C307.08 163.442 307.427 163.54 307.825 163.54C308.23 163.54 308.604 163.446 308.948 163.257C309.292 163.061 309.568 162.781 309.777 162.417C309.987 162.046 310.091 161.605 310.091 161.092ZM308.958 161.092C308.958 161.402 308.894 161.669 308.766 161.891C308.638 162.107 308.466 162.272 308.25 162.387C308.041 162.495 307.808 162.549 307.552 162.549C307.343 162.549 307.137 162.495 306.935 162.387C306.733 162.272 306.564 162.107 306.429 161.891C306.301 161.675 306.237 161.409 306.237 161.092C306.237 160.775 306.301 160.509 306.429 160.293C306.564 160.077 306.733 159.915 306.935 159.807C307.137 159.693 307.343 159.635 307.552 159.635C307.808 159.635 308.041 159.693 308.25 159.807C308.466 159.915 308.638 160.08 308.766 160.303C308.894 160.519 308.958 160.782 308.958 161.092ZM310.778 161.092C310.778 161.564 310.886 161.986 311.101 162.357C311.324 162.721 311.624 163.007 312.002 163.216C312.379 163.419 312.808 163.52 313.286 163.52C313.765 163.52 314.19 163.419 314.561 163.216C314.939 163.007 315.239 162.721 315.461 162.357C315.684 161.986 315.795 161.564 315.795 161.092C315.795 160.613 315.684 160.192 315.461 159.827C315.239 159.463 314.939 159.18 314.561 158.978C314.19 158.769 313.765 158.664 313.286 158.664C312.808 158.664 312.379 158.769 312.002 158.978C311.624 159.18 311.324 159.463 311.101 159.827C310.886 160.192 310.778 160.613 310.778 161.092ZM311.901 161.092C311.901 160.802 311.961 160.546 312.083 160.323C312.204 160.101 312.369 159.929 312.578 159.807C312.787 159.686 313.023 159.625 313.286 159.625C313.543 159.625 313.775 159.686 313.984 159.807C314.2 159.929 314.369 160.101 314.49 160.323C314.612 160.546 314.672 160.802 314.672 161.092C314.672 161.382 314.612 161.638 314.49 161.861C314.369 162.077 314.2 162.249 313.984 162.377C313.775 162.498 313.543 162.559 313.286 162.559C313.023 162.559 312.787 162.498 312.578 162.377C312.369 162.249 312.204 162.077 312.083 161.861C311.961 161.638 311.901 161.382 311.901 161.092ZM320.949 158.765H316.832V163.419H317.904V159.747H319.877V163.419H320.949V158.765ZM323.407 165.644V158.765H322.304V165.644H323.407ZM327.261 161.092C327.261 160.573 327.156 160.131 326.947 159.767C326.738 159.403 326.462 159.126 326.118 158.937C325.774 158.742 325.399 158.644 324.995 158.644C324.597 158.644 324.25 158.745 323.953 158.947C323.663 159.143 323.437 159.423 323.275 159.787C323.12 160.151 323.042 160.586 323.042 161.092C323.042 161.591 323.12 162.026 323.275 162.397C323.437 162.761 323.663 163.044 323.953 163.247C324.25 163.442 324.597 163.54 324.995 163.54C325.399 163.54 325.774 163.446 326.118 163.257C326.462 163.061 326.738 162.781 326.947 162.417C327.156 162.046 327.261 161.605 327.261 161.092ZM326.128 161.092C326.128 161.402 326.064 161.669 325.936 161.891C325.807 162.107 325.635 162.272 325.42 162.387C325.211 162.495 324.978 162.549 324.722 162.549C324.513 162.549 324.307 162.495 324.105 162.387C323.902 162.272 323.734 162.107 323.599 161.891C323.471 161.675 323.407 161.409 323.407 161.092C323.407 160.775 323.471 160.509 323.599 160.293C323.734 160.077 323.902 159.915 324.105 159.807C324.307 159.693 324.513 159.635 324.722 159.635C324.978 159.635 325.211 159.693 325.42 159.807C325.635 159.915 325.807 160.08 325.936 160.303C326.064 160.519 326.128 160.782 326.128 161.092ZM332.52 159.777L332.57 158.411L328.392 162.407L328.342 163.773L332.52 159.777ZM329.414 158.765H328.342V163.773L329.414 162.539V158.765ZM332.57 158.411L331.498 159.645V163.419H332.57V158.411ZM334.962 163.419L336.51 161.112H335.397L333.799 163.419H334.962ZM337.987 163.419V158.765H336.884V163.419H337.987ZM337.289 160.799H335.933C335.765 160.799 335.623 160.778 335.509 160.738C335.394 160.697 335.306 160.637 335.246 160.556C335.185 160.475 335.155 160.367 335.155 160.232C335.155 160.104 335.185 159.999 335.246 159.919C335.306 159.838 335.394 159.777 335.509 159.736C335.623 159.696 335.765 159.676 335.933 159.676H337.289V158.765H335.842C335.525 158.765 335.232 158.813 334.962 158.907C334.693 159.001 334.477 159.153 334.315 159.362C334.153 159.564 334.072 159.838 334.072 160.182C334.072 160.526 334.153 160.805 334.315 161.021C334.477 161.23 334.693 161.385 334.962 161.487C335.232 161.581 335.525 161.628 335.842 161.628H337.289V160.799ZM338.501 158.765V159.726H341.445V158.765H338.501ZM339.442 158.968V163.419H340.514V158.968H339.442ZM346.41 159.777L346.46 158.411L342.282 162.407L342.232 163.773L346.41 159.777ZM343.304 158.765H342.232V163.773L343.304 162.539V158.765ZM346.46 158.411L345.388 159.645V163.419H346.46V158.411ZM350.582 158.765L349.56 160.222L348.559 158.765H347.304L348.984 161.021L347.203 163.419H348.458L349.56 161.82L350.683 163.419H351.907L350.137 161.021L351.806 158.765H350.582ZM352.826 156.337L353.079 161.274H353.939L354.192 156.337H352.826ZM352.796 162.923C352.796 163.119 352.863 163.284 352.998 163.419C353.14 163.547 353.312 163.611 353.514 163.611C353.716 163.611 353.885 163.547 354.02 163.419C354.155 163.284 354.222 163.119 354.222 162.923C354.222 162.727 354.155 162.566 354.02 162.437C353.885 162.309 353.716 162.245 353.514 162.245C353.312 162.245 353.14 162.309 352.998 162.437C352.863 162.566 352.796 162.727 352.796 162.923Z" fill="white"/>
<path d="M226.654 54.2823H231.702V53.1796H226.654V54.2823ZM230.933 50.4483V57.5295H232.127V50.4483H230.933ZM226.179 50.4483V57.5295H227.372V50.4483H226.179ZM234.303 56.1538C234.303 55.9919 234.34 55.8536 234.414 55.739C234.495 55.6176 234.613 55.5266 234.768 55.4659C234.93 55.3984 235.126 55.3647 235.355 55.3647C235.638 55.3647 235.888 55.4018 236.104 55.476C236.32 55.5434 236.532 55.6547 236.741 55.8098V55.2332C236.687 55.1658 236.589 55.0882 236.448 55.0005C236.306 54.9128 236.127 54.8353 235.912 54.7679C235.703 54.7004 235.463 54.6667 235.193 54.6667C234.789 54.6667 234.435 54.7274 234.131 54.8488C233.834 54.9702 233.605 55.1455 233.443 55.3748C233.281 55.6041 233.201 55.8772 233.201 56.1942C233.201 56.5112 233.271 56.7776 233.413 56.9934C233.561 57.2025 233.757 57.3609 234 57.4688C234.249 57.5767 234.526 57.6307 234.829 57.6307C235.153 57.6307 235.446 57.5767 235.709 57.4688C235.972 57.3542 236.181 57.1923 236.336 56.9833C236.492 56.7675 236.569 56.5112 236.569 56.2145L236.407 55.6884C236.407 55.9582 236.353 56.174 236.245 56.3358C236.138 56.4977 235.989 56.6157 235.8 56.6899C235.612 56.7641 235.399 56.8012 235.163 56.8012C235.001 56.8012 234.856 56.7776 234.728 56.7304C234.6 56.6764 234.495 56.6022 234.414 56.5078C234.34 56.4134 234.303 56.2954 234.303 56.1538ZM234.06 54.1002C234.135 54.053 234.239 53.9957 234.374 53.9282C234.516 53.854 234.681 53.79 234.87 53.736C235.058 53.6821 235.264 53.6551 235.487 53.6551C235.743 53.6551 235.959 53.7158 236.134 53.8372C236.316 53.9518 236.407 54.117 236.407 54.3329V57.5295H237.48V54.2115C237.48 53.9012 237.395 53.6416 237.227 53.4325C237.065 53.2167 236.839 53.0515 236.549 52.9368C236.259 52.8222 235.922 52.7649 235.537 52.7649C235.119 52.7649 234.748 52.8256 234.425 52.947C234.101 53.0683 233.834 53.1931 233.625 53.3213L234.06 54.1002ZM242.981 53.8878L243.031 52.5221L238.853 56.5179L238.803 57.8836L242.981 53.8878ZM239.875 52.8761H238.803V57.8836L239.875 56.6494V52.8761ZM243.031 52.5221L241.959 53.7562V57.5295H243.031V52.5221ZM239.339 50.4989C239.339 50.7417 239.4 50.9743 239.521 51.1969C239.642 51.4194 239.824 51.5981 240.067 51.733C240.31 51.8679 240.607 51.9353 240.957 51.9353C241.315 51.9353 241.612 51.8679 241.848 51.733C242.09 51.5981 242.272 51.4194 242.394 51.1969C242.522 50.9743 242.586 50.7417 242.586 50.4989H241.746C241.746 50.6 241.719 50.7046 241.666 50.8125C241.618 50.9204 241.537 51.0114 241.423 51.0856C241.308 51.1598 241.153 51.1969 240.957 51.1969C240.762 51.1969 240.607 51.1598 240.492 51.0856C240.377 51.0114 240.293 50.9204 240.239 50.8125C240.192 50.7046 240.168 50.6 240.168 50.4989H239.339ZM247.163 54.4441L248.428 57.2261L249.561 57.1047L247.163 52.5221L244.766 57.1047L245.899 57.2261L247.163 54.4441ZM249.085 57.5295V58.44H250.147V56.5989H244.179V58.44H245.292V57.5295H249.085ZM255.517 53.8878L255.568 52.5221L251.39 56.5179L251.339 57.8836L255.517 53.8878ZM252.411 52.8761H251.339V57.8836L252.411 56.6494V52.8761ZM255.568 52.5221L254.495 53.7562V57.5295H255.568V52.5221ZM260.77 55.2028C260.77 54.9128 260.834 54.6566 260.962 54.434C261.09 54.2115 261.262 54.0361 261.478 53.908C261.701 53.7798 261.947 53.7158 262.217 53.7158C262.432 53.7158 262.641 53.7495 262.844 53.8169C263.046 53.8844 263.225 53.9788 263.38 54.1002C263.542 54.2148 263.66 54.3497 263.734 54.5048V53.301C263.572 53.1392 263.353 53.011 263.076 52.9166C262.8 52.8222 262.496 52.775 262.166 52.775C261.687 52.775 261.255 52.8795 260.871 53.0886C260.493 53.2909 260.193 53.5742 259.971 53.9383C259.755 54.3025 259.647 54.724 259.647 55.2028C259.647 55.6749 259.755 56.0964 259.971 56.4674C260.193 56.8315 260.493 57.1182 260.871 57.3272C261.255 57.5295 261.687 57.6307 262.166 57.6307C262.496 57.6307 262.8 57.5835 263.076 57.4891C263.353 57.3947 263.572 57.2665 263.734 57.1047V55.9009C263.66 56.0492 263.545 56.1841 263.39 56.3055C263.235 56.4269 263.056 56.5213 262.854 56.5887C262.651 56.6562 262.439 56.6899 262.217 56.6899C261.947 56.6899 261.701 56.6258 261.478 56.4977C261.262 56.3696 261.09 56.1976 260.962 55.9818C260.834 55.7592 260.77 55.4996 260.77 55.2028ZM265.64 55.1017V55.5771H266.985C267.12 55.5771 267.234 55.5906 267.329 55.6176C267.43 55.6446 267.508 55.685 267.562 55.739C267.622 55.7929 267.669 55.8536 267.703 55.9211C267.737 55.9885 267.754 56.0627 267.754 56.1436C267.754 56.2988 267.693 56.4336 267.572 56.5483C267.45 56.6629 267.255 56.7203 266.985 56.7203H265.64V57.5295H267.319C267.852 57.5295 268.233 57.4081 268.462 57.1654C268.698 56.9158 268.816 56.6157 268.816 56.265C268.816 55.9615 268.742 55.7255 268.593 55.5569C268.445 55.3883 268.243 55.2703 267.986 55.2028C267.73 55.1354 267.44 55.1017 267.116 55.1017H265.64ZM265.64 55.304H267.015C267.305 55.304 267.568 55.2635 267.804 55.1826C268.047 55.0949 268.243 54.9668 268.391 54.7982C268.539 54.6229 268.614 54.4037 268.614 54.1407C268.614 53.8372 268.539 53.5944 268.391 53.4123C268.243 53.2235 268.047 53.0886 267.804 53.0077C267.568 52.92 267.305 52.8761 267.015 52.8761H265.64V53.6854H266.884C267.093 53.6854 267.255 53.736 267.369 53.8372C267.491 53.9383 267.551 54.0665 267.551 54.2216C267.551 54.2958 267.535 54.3666 267.501 54.434C267.467 54.5015 267.423 54.5622 267.369 54.6161C267.315 54.6701 267.245 54.7105 267.157 54.7375C267.076 54.7645 266.985 54.778 266.884 54.778H265.64V55.304ZM265.002 52.8761V57.5295H266.075V52.8761H265.002ZM269.468 55.2028C269.468 55.6749 269.576 56.0964 269.791 56.4674C270.014 56.8315 270.314 57.1182 270.692 57.3272C271.069 57.5295 271.498 57.6307 271.976 57.6307C272.455 57.6307 272.88 57.5295 273.251 57.3272C273.629 57.1182 273.929 56.8315 274.151 56.4674C274.374 56.0964 274.485 55.6749 274.485 55.2028C274.485 54.724 274.374 54.3025 274.151 53.9383C273.929 53.5742 273.629 53.2909 273.251 53.0886C272.88 52.8795 272.455 52.775 271.976 52.775C271.498 52.775 271.069 52.8795 270.692 53.0886C270.314 53.2909 270.014 53.5742 269.791 53.9383C269.576 54.3025 269.468 54.724 269.468 55.2028ZM270.591 55.2028C270.591 54.9128 270.651 54.6566 270.773 54.434C270.894 54.2115 271.059 54.0395 271.268 53.9181C271.477 53.7967 271.713 53.736 271.976 53.736C272.233 53.736 272.465 53.7967 272.674 53.9181C272.89 54.0395 273.059 54.2115 273.18 54.434C273.302 54.6566 273.362 54.9128 273.362 55.2028C273.362 55.4928 273.302 55.7491 273.18 55.9717C273.059 56.1875 272.89 56.3594 272.674 56.4876C272.465 56.609 272.233 56.6697 271.976 56.6697C271.713 56.6697 271.477 56.609 271.268 56.4876C271.059 56.3594 270.894 56.1875 270.773 55.9717C270.651 55.7491 270.591 55.4928 270.591 55.2028ZM279.74 53.8878L279.791 52.5221L275.613 56.5179L275.562 57.8836L279.74 53.8878ZM276.635 52.8761H275.562V57.8836L276.635 56.6494V52.8761ZM279.791 52.5221L278.719 53.7562V57.5295H279.791V52.5221ZM283.913 52.8761L282.891 54.3329L281.89 52.8761H280.635L282.314 55.132L280.534 57.5295H281.788L282.891 55.9312L284.014 57.5295H285.238L283.468 55.132L285.137 52.8761H283.913ZM291.658 54.4441L292.923 57.2261L294.056 57.1047L291.658 52.5221L289.261 57.1047L290.394 57.2261L291.658 54.4441ZM293.58 57.5295V58.44H294.642V56.5989H288.674V58.44H289.787V57.5295H293.58ZM296.856 59.7551V52.8761H295.753V59.7551H296.856ZM300.71 55.2028C300.71 54.6836 300.605 54.2418 300.396 53.8776C300.187 53.5135 299.911 53.237 299.567 53.0481C299.223 52.8525 298.849 52.7548 298.444 52.7548C298.046 52.7548 297.699 52.8559 297.402 53.0582C297.112 53.2538 296.886 53.5337 296.724 53.8979C296.569 54.262 296.492 54.697 296.492 55.2028C296.492 55.7019 296.569 56.1369 296.724 56.5078C296.886 56.872 297.112 57.1552 297.402 57.3576C297.699 57.5531 298.046 57.6509 298.444 57.6509C298.849 57.6509 299.223 57.5565 299.567 57.3677C299.911 57.1721 300.187 56.8922 300.396 56.528C300.605 56.1571 300.71 55.7154 300.71 55.2028ZM299.577 55.2028C299.577 55.5131 299.513 55.7795 299.385 56.002C299.257 56.2178 299.085 56.3831 298.869 56.4977C298.66 56.6056 298.427 56.6596 298.171 56.6596C297.962 56.6596 297.756 56.6056 297.554 56.4977C297.351 56.3831 297.183 56.2178 297.048 56.002C296.92 55.7862 296.856 55.5198 296.856 55.2028C296.856 54.8859 296.92 54.6195 297.048 54.4037C297.183 54.1879 297.351 54.026 297.554 53.9181C297.756 53.8035 297.962 53.7461 298.171 53.7461C298.427 53.7461 298.66 53.8035 298.869 53.9181C299.085 54.026 299.257 54.1912 299.385 54.4138C299.513 54.6296 299.577 54.8926 299.577 55.2028ZM305.72 52.8761H304.546L303.089 56.528L303.605 56.5584L302.118 52.8761H300.864L302.735 56.9833L301.522 59.7551H302.685L305.72 52.8761ZM308.225 55.2028C308.819 55.2163 309.271 55.1152 309.581 54.8994C309.891 54.6768 310.046 54.3969 310.046 54.0597C310.046 53.8237 309.972 53.6079 309.824 53.4123C309.675 53.2167 309.47 53.0616 309.206 52.947C308.943 52.8323 308.647 52.775 308.316 52.775C307.966 52.775 307.652 52.8424 307.375 52.9773C307.106 53.1122 306.893 53.2943 306.738 53.5236C306.583 53.7529 306.505 54.0125 306.505 54.3025H307.558C307.558 54.1946 307.585 54.0934 307.638 53.999C307.699 53.8979 307.787 53.8169 307.902 53.7562C308.016 53.6888 308.158 53.6551 308.326 53.6551C308.529 53.6551 308.687 53.7023 308.802 53.7967C308.923 53.8911 308.984 54.0159 308.984 54.171C308.984 54.3261 308.923 54.4576 308.802 54.5655C308.687 54.6667 308.495 54.7173 308.225 54.7173V55.2028ZM308.296 57.6307C308.66 57.6307 308.991 57.5734 309.287 57.4587C309.584 57.3373 309.817 57.1687 309.985 56.9529C310.161 56.7304 310.248 56.4674 310.248 56.1639C310.248 55.7323 310.066 55.4119 309.702 55.2028C309.345 54.987 308.852 54.8859 308.225 54.8994V55.4355C308.434 55.4355 308.61 55.4625 308.751 55.5164C308.9 55.5704 309.011 55.6479 309.085 55.7491C309.159 55.8503 309.196 55.9717 309.196 56.1133C309.196 56.2482 309.159 56.3662 309.085 56.4674C309.018 56.5618 308.916 56.636 308.782 56.6899C308.647 56.7439 308.485 56.7708 308.296 56.7708C308.006 56.7708 307.787 56.7 307.638 56.5584C307.497 56.41 307.402 56.2279 307.355 56.0121H306.283C306.337 56.491 306.536 56.8821 306.88 57.1856C307.23 57.4823 307.703 57.6307 308.296 57.6307ZM311.696 55.4557H315.783C315.796 55.395 315.803 55.3411 315.803 55.2939C315.803 55.2399 315.803 55.1927 315.803 55.1523C315.803 54.6599 315.708 54.2384 315.52 53.8878C315.331 53.5303 315.061 53.2572 314.71 53.0683C314.366 52.8728 313.955 52.775 313.476 52.775C313.038 52.775 312.65 52.8559 312.313 53.0178C311.976 53.1796 311.702 53.4056 311.493 53.6955C311.291 53.9855 311.156 54.3227 311.089 54.7072C311.075 54.7881 311.065 54.869 311.058 54.9499C311.052 55.0309 311.048 55.1152 311.048 55.2028C311.048 55.6682 311.146 56.0863 311.342 56.4572C311.537 56.8214 311.814 57.108 312.171 57.3171C312.529 57.5262 312.947 57.6307 313.426 57.6307C313.85 57.6307 314.205 57.5801 314.488 57.479C314.778 57.3711 315.021 57.2227 315.216 57.0339C315.418 56.845 315.597 56.6258 315.752 56.3763L314.812 55.9919C314.724 56.1403 314.616 56.2718 314.488 56.3864C314.36 56.4943 314.211 56.5786 314.043 56.6393C313.881 56.7 313.692 56.7304 313.476 56.7304C313.213 56.7304 312.98 56.6764 312.778 56.5685C312.583 56.4539 312.427 56.2853 312.313 56.0627C312.205 55.8334 312.151 55.5468 312.151 55.2028L312.171 54.9196C312.171 54.6498 312.229 54.4172 312.343 54.2216C312.458 54.0193 312.613 53.8675 312.809 53.7664C313.004 53.6585 313.223 53.6045 313.466 53.6045C313.702 53.6045 313.901 53.6517 314.063 53.7461C314.225 53.8338 314.35 53.9619 314.437 54.1305C314.532 54.2924 314.592 54.4846 314.619 54.7072H311.696V55.4557ZM321.074 53.8878L321.125 52.5221L316.947 56.5179L316.896 57.8836L321.074 53.8878ZM317.968 52.8761H316.896V57.8836L317.968 56.6494V52.8761ZM321.125 52.5221L320.052 53.7562V57.5295H321.125V52.5221ZM317.432 50.4989C317.432 50.7417 317.493 50.9743 317.614 51.1969C317.736 51.4194 317.918 51.5981 318.161 51.733C318.403 51.8679 318.7 51.9353 319.051 51.9353C319.408 51.9353 319.705 51.8679 319.941 51.733C320.184 51.5981 320.366 51.4194 320.487 51.1969C320.615 50.9743 320.679 50.7417 320.679 50.4989H319.84C319.84 50.6 319.813 50.7046 319.759 50.8125C319.712 50.9204 319.631 51.0114 319.516 51.0856C319.401 51.1598 319.246 51.1969 319.051 51.1969C318.855 51.1969 318.7 51.1598 318.585 51.0856C318.471 51.0114 318.386 50.9204 318.333 50.8125C318.285 50.7046 318.262 50.6 318.262 50.4989H317.432ZM329.817 53.8878L329.867 52.5221L325.69 56.5179L325.639 57.8836L329.817 53.8878ZM326.711 52.8761H325.639V57.8836L326.711 56.6494V52.8761ZM329.867 52.5221L328.795 53.7562V57.5295H329.867V52.5221ZM229.927 70.4557H234.014C234.028 70.395 234.035 70.3411 234.035 70.2939C234.035 70.2399 234.035 70.1927 234.035 70.1523C234.035 69.6599 233.94 69.2384 233.751 68.8878C233.562 68.5303 233.293 68.2572 232.942 68.0683C232.598 67.8728 232.187 67.775 231.708 67.775C231.269 67.775 230.882 67.8559 230.544 68.0178C230.207 68.1796 229.934 68.4056 229.725 68.6955C229.523 68.9855 229.388 69.3227 229.32 69.7072C229.307 69.7881 229.297 69.869 229.29 69.9499C229.283 70.0309 229.28 70.1152 229.28 70.2028C229.28 70.6682 229.378 71.0863 229.573 71.4572C229.769 71.8214 230.045 72.108 230.403 72.3171C230.76 72.5262 231.178 72.6307 231.657 72.6307C232.082 72.6307 232.436 72.5801 232.719 72.479C233.009 72.3711 233.252 72.2227 233.448 72.0339C233.65 71.845 233.829 71.6258 233.984 71.3763L233.043 70.9919C232.955 71.1403 232.848 71.2718 232.719 71.3864C232.591 71.4943 232.443 71.5786 232.274 71.6393C232.112 71.7 231.924 71.7304 231.708 71.7304C231.445 71.7304 231.212 71.6764 231.01 71.5685C230.814 71.4539 230.659 71.2853 230.544 71.0627C230.437 70.8334 230.383 70.5468 230.383 70.2028L230.403 69.9196C230.403 69.6498 230.46 69.4172 230.575 69.2216C230.689 69.0193 230.845 68.8675 231.04 68.7664C231.236 68.6585 231.455 68.6045 231.698 68.6045C231.934 68.6045 232.133 68.6517 232.295 68.7461C232.456 68.8338 232.581 68.9619 232.669 69.1305C232.763 69.2924 232.824 69.4846 232.851 69.7072H229.927V70.4557ZM237.274 69.4441L238.539 72.2261L239.672 72.1047L237.274 67.5221L234.877 72.1047L236.01 72.2261L237.274 69.4441ZM239.196 72.5295V73.44H240.259V71.5989H234.29V73.44H235.403V72.5295H239.196ZM245.628 68.8878L245.679 67.5221L241.501 71.5179L241.45 72.8836L245.628 68.8878ZM242.523 67.8761H241.45V72.8836L242.523 71.6494V67.8761ZM245.679 67.5221L244.606 68.7562V72.5295H245.679V67.5221ZM247.595 70.5266H251.156V69.6262H247.595V70.5266ZM250.569 67.8761V72.5295H251.642V67.8761H250.569ZM247.12 67.8761V72.5295H248.192V67.8761H247.12ZM252.683 70.2028C252.683 70.6749 252.791 71.0964 253.007 71.4674C253.23 71.8315 253.53 72.1182 253.907 72.3272C254.285 72.5295 254.713 72.6307 255.192 72.6307C255.671 72.6307 256.096 72.5295 256.467 72.3272C256.844 72.1182 257.144 71.8315 257.367 71.4674C257.59 71.0964 257.701 70.6749 257.701 70.2028C257.701 69.724 257.59 69.3025 257.367 68.9383C257.144 68.5742 256.844 68.2909 256.467 68.0886C256.096 67.8795 255.671 67.775 255.192 67.775C254.713 67.775 254.285 67.8795 253.907 68.0886C253.53 68.2909 253.23 68.5742 253.007 68.9383C252.791 69.3025 252.683 69.724 252.683 70.2028ZM253.806 70.2028C253.806 69.9128 253.867 69.6566 253.988 69.434C254.11 69.2115 254.275 69.0395 254.484 68.9181C254.693 68.7967 254.929 68.736 255.192 68.736C255.448 68.736 255.681 68.7967 255.89 68.9181C256.106 69.0395 256.274 69.2115 256.396 69.434C256.517 69.6566 256.578 69.9128 256.578 70.2028C256.578 70.4928 256.517 70.7491 256.396 70.9717C256.274 71.1875 256.106 71.3594 255.89 71.4876C255.681 71.609 255.448 71.6697 255.192 71.6697C254.929 71.6697 254.693 71.609 254.484 71.4876C254.275 71.3594 254.11 71.1875 253.988 70.9717C253.867 70.7491 253.806 70.4928 253.806 70.2028ZM263.168 72.5295H264.332L263.037 67.5221L262.46 69.0395L263.168 72.5295ZM260.892 71.5786L261.196 72.8431L263.138 69.3126L263.037 67.5221L260.892 71.5786ZM261.196 72.8431L261.499 71.5786L259.375 67.5221L259.274 69.3126L261.196 72.8431ZM258.09 72.5295H259.253L259.962 69.0395L259.375 67.5221L258.09 72.5295ZM269.592 67.8761V72.5295H270.694V67.8761H269.592ZM265.08 67.8761V72.5295H266.172V67.8761H265.08ZM265.839 70.3849H267.184C267.427 70.3849 267.612 70.4389 267.74 70.5468C267.868 70.6547 267.933 70.8098 267.933 71.0121C267.933 71.1403 267.902 71.2515 267.842 71.346C267.781 71.4404 267.697 71.5112 267.589 71.5584C267.481 71.6056 267.346 71.6292 267.184 71.6292H265.839V72.5295H267.285C267.609 72.5295 267.899 72.4722 268.155 72.3576C268.411 72.2429 268.614 72.0743 268.762 71.8518C268.91 71.6225 268.985 71.3426 268.985 71.0121C268.985 70.5131 268.819 70.1489 268.489 69.9196C268.165 69.6836 267.764 69.5655 267.285 69.5655H265.839V70.3849ZM275.979 71.5685V67.8761H274.906V71.5685H273.156V67.8761H272.084V72.5295H278.811V67.8761H277.739V71.5685H275.979ZM284.605 67.8761H280.346V70.7592C280.346 71.0627 280.272 71.2684 280.124 71.3763C279.982 71.4842 279.81 71.5382 279.608 71.5382V72.5295C280.039 72.5295 280.387 72.4722 280.65 72.3576C280.919 72.2362 281.115 72.0575 281.236 71.8214C281.358 71.5786 281.418 71.2751 281.418 70.911V68.8878H283.533V72.5295H284.605V67.8761ZM286.406 70.4557H290.492C290.506 70.395 290.513 70.3411 290.513 70.2939C290.513 70.2399 290.513 70.1927 290.513 70.1523C290.513 69.6599 290.418 69.2384 290.229 68.8878C290.041 68.5303 289.771 68.2572 289.42 68.0683C289.076 67.8728 288.665 67.775 288.186 67.775C287.748 67.775 287.36 67.8559 287.023 68.0178C286.685 68.1796 286.412 68.4056 286.203 68.6955C286.001 68.9855 285.866 69.3227 285.799 69.7072C285.785 69.7881 285.775 69.869 285.768 69.9499C285.762 70.0309 285.758 70.1152 285.758 70.2028C285.758 70.6682 285.856 71.0863 286.051 71.4572C286.247 71.8214 286.524 72.108 286.881 72.3171C287.238 72.5262 287.657 72.6307 288.135 72.6307C288.56 72.6307 288.914 72.5801 289.198 72.479C289.488 72.3711 289.73 72.2227 289.926 72.0339C290.128 71.845 290.307 71.6258 290.462 71.3763L289.521 70.9919C289.434 71.1403 289.326 71.2718 289.198 71.3864C289.069 71.4943 288.921 71.5786 288.752 71.6393C288.591 71.7 288.402 71.7304 288.186 71.7304C287.923 71.7304 287.69 71.6764 287.488 71.5685C287.292 71.4539 287.137 71.2853 287.023 71.0627C286.915 70.8334 286.861 70.5468 286.861 70.2028L286.881 69.9196C286.881 69.6498 286.938 69.4172 287.053 69.2216C287.168 69.0193 287.323 68.8675 287.518 68.7664C287.714 68.6585 287.933 68.6045 288.176 68.6045C288.412 68.6045 288.611 68.6517 288.773 68.7461C288.935 68.8338 289.059 68.9619 289.147 69.1305C289.241 69.2924 289.302 69.4846 289.329 69.7072H286.406V70.4557ZM292.041 70.5266H295.602V69.6262H292.041V70.5266ZM295.015 67.8761V72.5295H296.087V67.8761H295.015ZM291.565 67.8761V72.5295H292.638V67.8761H291.565ZM297.958 70.5266H301.519V69.6262H297.958V70.5266ZM300.932 67.8761V72.5295H302.005V67.8761H300.932ZM297.483 67.8761V72.5295H298.555V67.8761H297.483ZM307.619 68.8878L307.669 67.5221L303.491 71.5179L303.441 72.8836L307.619 68.8878ZM304.513 67.8761H303.441V72.8836L304.513 71.6494V67.8761ZM307.669 67.5221L306.597 68.7562V72.5295H307.669V67.5221ZM309.07 67.8761V72.5295H310.142V67.8761H309.07ZM311.852 67.8761L309.839 69.7982L312.064 72.5295H313.39L311.184 69.7982L313.187 67.8761H311.852ZM313.617 70.2028C313.617 70.6749 313.725 71.0964 313.941 71.4674C314.163 71.8315 314.463 72.1182 314.841 72.3272C315.219 72.5295 315.647 72.6307 316.126 72.6307C316.604 72.6307 317.029 72.5295 317.4 72.3272C317.778 72.1182 318.078 71.8315 318.301 71.4674C318.523 71.0964 318.634 70.6749 318.634 70.2028C318.634 69.724 318.523 69.3025 318.301 68.9383C318.078 68.5742 317.778 68.2909 317.4 68.0886C317.029 67.8795 316.604 67.775 316.126 67.775C315.647 67.775 315.219 67.8795 314.841 68.0886C314.463 68.2909 314.163 68.5742 313.941 68.9383C313.725 69.3025 313.617 69.724 313.617 70.2028ZM314.74 70.2028C314.74 69.9128 314.8 69.6566 314.922 69.434C315.043 69.2115 315.208 69.0395 315.418 68.9181C315.627 68.7967 315.863 68.736 316.126 68.736C316.382 68.736 316.615 68.7967 316.824 68.9181C317.039 69.0395 317.208 69.2115 317.329 69.434C317.451 69.6566 317.512 69.9128 317.512 70.2028C317.512 70.4928 317.451 70.7491 317.329 70.9717C317.208 71.1875 317.039 71.3594 316.824 71.4876C316.615 71.609 316.382 71.6697 316.126 71.6697C315.863 71.6697 315.627 71.609 315.418 71.4876C315.208 71.3594 315.043 71.1875 314.922 70.9717C314.8 70.7491 314.74 70.4928 314.74 70.2028ZM320.369 70.1017V70.5771H321.715C321.849 70.5771 321.964 70.5906 322.058 70.6176C322.16 70.6446 322.237 70.685 322.291 70.739C322.352 70.7929 322.399 70.8536 322.433 70.9211C322.467 70.9885 322.483 71.0627 322.483 71.1436C322.483 71.2988 322.423 71.4336 322.301 71.5483C322.18 71.6629 321.984 71.7203 321.715 71.7203H320.369V72.5295H322.048C322.581 72.5295 322.962 72.4081 323.191 72.1654C323.428 71.9158 323.546 71.6157 323.546 71.265C323.546 70.9615 323.471 70.7255 323.323 70.5569C323.175 70.3883 322.972 70.2703 322.716 70.2028C322.46 70.1354 322.17 70.1017 321.846 70.1017H320.369ZM320.369 70.304H321.745C322.035 70.304 322.298 70.2635 322.534 70.1826C322.777 70.0949 322.972 69.9668 323.121 69.7982C323.269 69.6229 323.343 69.4037 323.343 69.1407C323.343 68.8372 323.269 68.5944 323.121 68.4123C322.972 68.2235 322.777 68.0886 322.534 68.0077C322.298 67.92 322.035 67.8761 321.745 67.8761H320.369V68.6854H321.613C321.822 68.6854 321.984 68.736 322.099 68.8372C322.22 68.9383 322.281 69.0665 322.281 69.2216C322.281 69.2958 322.264 69.3666 322.23 69.434C322.197 69.5015 322.153 69.5622 322.099 69.6161C322.045 69.6701 321.974 69.7105 321.887 69.7375C321.806 69.7645 321.715 69.778 321.613 69.778H320.369V70.304ZM319.732 67.8761V72.5295H320.804V67.8761H319.732ZM324.774 65.4483L325.027 70.3849H325.887L326.14 65.4483H324.774ZM324.744 72.0339C324.744 72.2294 324.811 72.3947 324.946 72.5295C325.087 72.6577 325.259 72.7217 325.462 72.7217C325.664 72.7217 325.833 72.6577 325.968 72.5295C326.102 72.3947 326.17 72.2294 326.17 72.0339C326.17 71.8383 326.102 71.6764 325.968 71.5483C325.833 71.4201 325.664 71.3561 325.462 71.3561C325.259 71.3561 325.087 71.4201 324.946 71.5483C324.811 71.6764 324.744 71.8383 324.744 72.0339Z" fill="white"/>
<path d="M345.487 192.802C345.813 193.958 346.92 195.033 347.958 195.581C349.275 196.276 351.133 196.666 352.6 196.374" stroke="black" stroke-width="1.26451" stroke-linecap="round"/>
<rect x="1.06201" y="85.9866" width="184.618" height="36.2493" rx="10.1161" fill="#FF912C"/>
<path d="M209.074 102.004C207.437 104.459 188.42 107.483 185.681 112.12L185.681 96.1027C188.42 108.326 210.76 99.4748 209.074 102.004Z" fill="#FF912C"/>
<circle cx="163.973" cy="112.331" r="3.58278" fill="black"/>
<circle cx="177.461" cy="112.331" r="3.58278" fill="black"/>
<path d="M168.438 117.274H174.167" stroke="black" stroke-width="1.26451" stroke-linecap="round"/>
<path d="M41.5185 103.818C41.5185 103.332 41.6196 102.901 41.8219 102.523C42.031 102.139 42.3176 101.839 42.6818 101.623C43.046 101.407 43.4607 101.299 43.9261 101.299C44.4049 101.299 44.823 101.407 45.1805 101.623C45.5447 101.839 45.8279 102.139 46.0302 102.523C46.2325 102.901 46.3337 103.332 46.3337 103.818C46.3337 104.304 46.2292 104.739 46.0201 105.123C45.8178 105.501 45.5345 105.797 45.1704 106.013C44.8129 106.229 44.3982 106.337 43.9261 106.337C43.4607 106.337 43.046 106.229 42.6818 106.013C42.3176 105.797 42.031 105.501 41.8219 105.123C41.6196 104.739 41.5185 104.304 41.5185 103.818ZM40.2539 103.818C40.2539 104.344 40.345 104.833 40.5271 105.285C40.7092 105.737 40.9621 106.128 41.2858 106.458C41.6162 106.789 42.0074 107.048 42.4592 107.237C42.9111 107.419 43.4 107.51 43.9261 107.51C44.4589 107.51 44.9478 107.419 45.3929 107.237C45.8448 107.048 46.2359 106.789 46.5664 106.458C46.8968 106.128 47.1531 105.737 47.3352 105.285C47.5173 104.833 47.6083 104.344 47.6083 103.818C47.6083 103.285 47.5173 102.796 47.3352 102.351C47.1531 101.906 46.8935 101.522 46.5563 101.198C46.2258 100.867 45.838 100.611 45.3929 100.429C44.9478 100.247 44.4589 100.156 43.9261 100.156C43.4068 100.156 42.9212 100.247 42.4694 100.429C42.0243 100.611 41.6331 100.867 41.2959 101.198C40.9654 101.522 40.7092 101.906 40.5271 102.351C40.345 102.796 40.2539 103.285 40.2539 103.818ZM50.8936 103.565C51.1566 103.565 51.3927 103.626 51.6017 103.747C51.8108 103.869 51.976 104.041 52.0974 104.263C52.2188 104.486 52.2795 104.742 52.2795 105.032C52.2795 105.322 52.2188 105.578 52.0974 105.801C51.976 106.017 51.8108 106.189 51.6017 106.317C51.3927 106.438 51.1566 106.499 50.8936 106.499C50.6306 106.499 50.3945 106.438 50.1855 106.317C49.9764 106.189 49.8078 106.017 49.6797 105.801C49.5583 105.578 49.4976 105.322 49.4976 105.032L48.3342 104.425C48.3342 105.093 48.4455 105.652 48.6681 106.104C48.8906 106.556 49.1941 106.897 49.5785 107.126C49.9697 107.349 50.408 107.46 50.8936 107.46C51.3859 107.46 51.8175 107.355 52.1885 107.146C52.5661 106.937 52.8629 106.651 53.0787 106.286C53.2945 105.915 53.4024 105.497 53.4024 105.032C53.4024 104.56 53.2945 104.142 53.0787 103.778C52.8696 103.413 52.5796 103.127 52.2087 102.918C51.8378 102.709 51.4163 102.604 50.9442 102.604L50.8936 103.565ZM49.0019 105.032H49.4976C49.4976 104.796 49.5381 104.587 49.619 104.405C49.7067 104.223 49.8179 104.071 49.9528 103.95C50.0877 103.821 50.2361 103.727 50.3979 103.666C50.5665 103.599 50.7317 103.565 50.8936 103.565L50.9442 102.604C50.6542 102.604 50.3912 102.661 50.1551 102.776C49.9191 102.884 49.7134 103.042 49.5381 103.252C49.3695 103.461 49.2379 103.717 49.1435 104.02C49.0491 104.317 49.0019 104.654 49.0019 105.032ZM48.3342 104.425L49.3964 104.981L49.2953 103.919C49.2953 103.582 49.3391 103.252 49.4268 102.928C49.5144 102.604 49.6729 102.314 49.9022 102.058C50.1383 101.802 50.4654 101.599 50.8835 101.451C51.2544 101.323 51.5849 101.164 51.8749 100.975C52.1716 100.78 52.411 100.554 52.5931 100.298C52.7752 100.041 52.8831 99.7648 52.9168 99.4681H51.8546C51.8074 99.7109 51.6658 99.9368 51.4298 100.146C51.1937 100.348 50.8464 100.534 50.3878 100.702C49.855 100.898 49.4369 101.168 49.1334 101.512C48.8367 101.849 48.6276 102.26 48.5062 102.746C48.3916 103.231 48.3342 103.791 48.3342 104.425ZM58.3521 106.398V102.705H57.2798V106.398H55.5297V102.705H54.4574V107.359H60.9924V108.32H61.9939V106.398H61.1846V102.705H60.1022V106.398H58.3521ZM63.661 105.983C63.661 105.821 63.6981 105.683 63.7722 105.568C63.8532 105.447 63.9712 105.356 64.1263 105.295C64.2882 105.228 64.4837 105.194 64.713 105.194C64.9963 105.194 65.2458 105.231 65.4616 105.305C65.6774 105.373 65.8899 105.484 66.0989 105.639V105.062C66.045 104.995 65.9472 104.917 65.8056 104.83C65.664 104.742 65.4852 104.664 65.2694 104.597C65.0604 104.53 64.8209 104.496 64.5512 104.496C64.1465 104.496 63.7925 104.556 63.489 104.678C63.1923 104.799 62.963 104.975 62.8011 105.204C62.6392 105.433 62.5583 105.706 62.5583 106.023C62.5583 106.34 62.6291 106.607 62.7708 106.822C62.9191 107.032 63.1147 107.19 63.3575 107.298C63.607 107.406 63.8835 107.46 64.187 107.46C64.5107 107.46 64.8041 107.406 65.0671 107.298C65.3301 107.183 65.5392 107.021 65.6943 106.812C65.8494 106.597 65.927 106.34 65.927 106.044L65.7651 105.518C65.7651 105.787 65.7112 106.003 65.6033 106.165C65.4954 106.327 65.347 106.445 65.1581 106.519C64.9693 106.593 64.7569 106.63 64.5208 106.63C64.359 106.63 64.214 106.607 64.0858 106.559C63.9577 106.506 63.8532 106.431 63.7722 106.337C63.6981 106.243 63.661 106.124 63.661 105.983ZM63.4182 103.929C63.4924 103.882 63.5969 103.825 63.7318 103.757C63.8734 103.683 64.0386 103.619 64.2275 103.565C64.4163 103.511 64.622 103.484 64.8446 103.484C65.1008 103.484 65.3166 103.545 65.492 103.666C65.6741 103.781 65.7651 103.946 65.7651 104.162V107.359H66.8374V104.041C66.8374 103.73 66.7531 103.471 66.5845 103.262C66.4227 103.046 66.1967 102.881 65.9067 102.766C65.6167 102.651 65.2795 102.594 64.8951 102.594C64.477 102.594 64.1061 102.655 63.7824 102.776C63.4586 102.897 63.1923 103.022 62.9832 103.15L63.4182 103.929ZM72.3384 103.717L72.389 102.351L68.2111 106.347L68.1605 107.713L72.3384 103.717ZM69.2328 102.705H68.1605V107.713L69.2328 106.479V102.705ZM72.389 102.351L71.3167 103.585V107.359H72.389V102.351ZM68.6966 100.328C68.6966 100.571 68.7573 100.803 68.8787 101.026C69.0001 101.249 69.1822 101.427 69.425 101.562C69.6678 101.697 69.9645 101.764 70.3152 101.764C70.6727 101.764 70.9694 101.697 71.2054 101.562C71.4482 101.427 71.6303 101.249 71.7517 101.026C71.8798 100.803 71.9439 100.571 71.9439 100.328H71.1043C71.1043 100.429 71.0773 100.534 71.0233 100.642C70.9761 100.749 70.8952 100.841 70.7806 100.915C70.6659 100.989 70.5108 101.026 70.3152 101.026C70.1196 101.026 69.9645 100.989 69.8499 100.915C69.7352 100.841 69.6509 100.749 69.597 100.642C69.5498 100.534 69.5262 100.429 69.5262 100.328H68.6966ZM74.5584 105.032C74.5584 104.742 74.6225 104.486 74.7506 104.263C74.8788 104.041 75.0508 103.865 75.2666 103.737C75.4891 103.609 75.7353 103.545 76.005 103.545C76.2208 103.545 76.4299 103.579 76.6322 103.646C76.8346 103.713 77.0133 103.808 77.1684 103.929C77.3302 104.044 77.4483 104.179 77.5225 104.334V103.13C77.3606 102.968 77.1414 102.84 76.8649 102.746C76.5884 102.651 76.2849 102.604 75.9545 102.604C75.4756 102.604 75.044 102.709 74.6596 102.918C74.2819 103.12 73.9818 103.403 73.7593 103.767C73.5435 104.132 73.4356 104.553 73.4356 105.032C73.4356 105.504 73.5435 105.926 73.7593 106.296C73.9818 106.661 74.2819 106.947 74.6596 107.156C75.044 107.359 75.4756 107.46 75.9545 107.46C76.2849 107.46 76.5884 107.413 76.8649 107.318C77.1414 107.224 77.3606 107.096 77.5225 106.934V105.73C77.4483 105.878 77.3336 106.013 77.1785 106.135C77.0234 106.256 76.8447 106.35 76.6424 106.418C76.44 106.485 76.2276 106.519 76.005 106.519C75.7353 106.519 75.4891 106.455 75.2666 106.327C75.0508 106.199 74.8788 106.027 74.7506 105.811C74.6225 105.588 74.5584 105.329 74.5584 105.032ZM79.681 107.359L81.2287 105.052H80.116L78.5176 107.359H79.681ZM82.7057 107.359V102.705H81.603V107.359H82.7057ZM82.0077 104.739H80.6521C80.4835 104.739 80.3419 104.718 80.2272 104.678C80.1126 104.637 80.0249 104.577 79.9642 104.496C79.9035 104.415 79.8732 104.307 79.8732 104.172C79.8732 104.044 79.9035 103.939 79.9642 103.858C80.0249 103.778 80.1126 103.717 80.2272 103.676C80.3419 103.636 80.4835 103.616 80.6521 103.616H82.0077V102.705H80.5611C80.2441 102.705 79.9507 102.752 79.681 102.847C79.4112 102.941 79.1954 103.093 79.0335 103.302C78.8717 103.504 78.7908 103.778 78.7908 104.121C78.7908 104.465 78.8717 104.745 79.0335 104.961C79.1954 105.17 79.4112 105.325 79.681 105.426C79.9507 105.521 80.2441 105.568 80.5611 105.568H82.0077V104.739ZM87.6283 105.032C87.6283 104.742 87.6924 104.486 87.8205 104.263C87.9487 104.041 88.1207 103.865 88.3365 103.737C88.559 103.609 88.8052 103.545 89.0749 103.545C89.2907 103.545 89.4998 103.579 89.7021 103.646C89.9045 103.713 90.0832 103.808 90.2383 103.929C90.4001 104.044 90.5182 104.179 90.5923 104.334V103.13C90.4305 102.968 90.2113 102.84 89.9348 102.746C89.6583 102.651 89.3548 102.604 89.0244 102.604C88.5455 102.604 88.1139 102.709 87.7295 102.918C87.3518 103.12 87.0517 103.403 86.8292 103.767C86.6134 104.132 86.5055 104.553 86.5055 105.032C86.5055 105.504 86.6134 105.926 86.8292 106.296C87.0517 106.661 87.3518 106.947 87.7295 107.156C88.1139 107.359 88.5455 107.46 89.0244 107.46C89.3548 107.46 89.6583 107.413 89.9348 107.318C90.2113 107.224 90.4305 107.096 90.5923 106.934V105.73C90.5182 105.878 90.4035 106.013 90.2484 106.135C90.0933 106.256 89.9146 106.35 89.7122 106.418C89.5099 106.485 89.2975 106.519 89.0749 106.519C88.8052 106.519 88.559 106.455 88.3365 106.327C88.1207 106.199 87.9487 106.027 87.8205 105.811C87.6924 105.588 87.6283 105.329 87.6283 105.032ZM95.3083 105.356H98.8691V104.455H95.3083V105.356ZM98.2824 102.705V107.359H99.3547V102.705H98.2824ZM94.8328 102.705V107.359H95.9051V102.705H94.8328ZM101.438 105.983C101.438 105.821 101.475 105.683 101.549 105.568C101.63 105.447 101.748 105.356 101.904 105.295C102.065 105.228 102.261 105.194 102.49 105.194C102.774 105.194 103.023 105.231 103.239 105.305C103.455 105.373 103.667 105.484 103.876 105.639V105.062C103.822 104.995 103.724 104.917 103.583 104.83C103.441 104.742 103.262 104.664 103.047 104.597C102.838 104.53 102.598 104.496 102.328 104.496C101.924 104.496 101.57 104.556 101.266 104.678C100.969 104.799 100.74 104.975 100.578 105.204C100.416 105.433 100.336 105.706 100.336 106.023C100.336 106.34 100.406 106.607 100.548 106.822C100.696 107.032 100.892 107.19 101.135 107.298C101.384 107.406 101.661 107.46 101.964 107.46C102.288 107.46 102.581 107.406 102.844 107.298C103.107 107.183 103.316 107.021 103.472 106.812C103.627 106.597 103.704 106.34 103.704 106.044L103.542 105.518C103.542 105.787 103.488 106.003 103.38 106.165C103.273 106.327 103.124 106.445 102.935 106.519C102.747 106.593 102.534 106.63 102.298 106.63C102.136 106.63 101.991 106.607 101.863 106.559C101.735 106.506 101.63 106.431 101.549 106.337C101.475 106.243 101.438 106.124 101.438 105.983ZM101.195 103.929C101.27 103.882 101.374 103.825 101.509 103.757C101.651 103.683 101.816 103.619 102.005 103.565C102.194 103.511 102.399 103.484 102.622 103.484C102.878 103.484 103.094 103.545 103.269 103.666C103.451 103.781 103.542 103.946 103.542 104.162V107.359H104.615V104.041C104.615 103.73 104.53 103.471 104.362 103.262C104.2 103.046 103.974 102.881 103.684 102.766C103.394 102.651 103.057 102.594 102.672 102.594C102.254 102.594 101.883 102.655 101.56 102.776C101.236 102.897 100.969 103.022 100.76 103.15L101.195 103.929ZM110.328 107.359H111.491L110.197 102.351L109.62 103.869L110.328 107.359ZM108.052 106.408L108.355 107.672L110.298 104.142L110.197 102.351L108.052 106.408ZM108.355 107.672L108.659 106.408L106.535 102.351L106.433 104.142L108.355 107.672ZM105.25 107.359H106.413L107.121 103.869L106.535 102.351L105.25 107.359ZM116.458 103.717L116.509 102.351L112.331 106.347L112.28 107.713L116.458 103.717ZM113.352 102.705H112.28V107.713L113.352 106.479V102.705ZM116.509 102.351L115.436 103.585V107.359H116.509V102.351ZM121.539 109.382C121.943 108.62 122.24 107.817 122.429 106.974C122.625 106.131 122.722 105.281 122.722 104.425C122.722 103.562 122.625 102.709 122.429 101.866C122.24 101.023 121.943 100.223 121.539 99.4681H120.527C120.885 100.223 121.148 101.023 121.316 101.866C121.492 102.709 121.579 103.562 121.579 104.425C121.579 105.281 121.492 106.131 121.316 106.974C121.148 107.817 120.885 108.62 120.527 109.382H121.539Z" fill="white"/>
<path d="M149.431 97.3673C152.382 97.3673 154.278 122.447 170.717 122.447L140.369 122.447C156.386 122.447 146.481 97.3673 149.431 97.3673Z" fill="#2388FF"/>
<rect x="0.640625" y="122.236" width="184.618" height="83.0362" rx="10.1161" fill="#2388FF"/>
<path d="M29.905 160.141H31.7057C31.9754 160.141 32.2115 160.182 32.4138 160.262C32.6161 160.343 32.7712 160.468 32.8791 160.637C32.9938 160.799 33.0511 161.004 33.0511 161.254C33.0511 161.503 32.9938 161.712 32.8791 161.881C32.7712 162.043 32.6161 162.164 32.4138 162.245C32.2115 162.326 31.9754 162.367 31.7057 162.367H29.905V163.419H31.8574C32.316 163.419 32.724 163.331 33.0815 163.156C33.4456 162.974 33.7323 162.721 33.9413 162.397C34.1571 162.067 34.2651 161.685 34.2651 161.254C34.2651 160.815 34.1571 160.438 33.9413 160.121C33.7323 159.797 33.4456 159.548 33.0815 159.372C32.724 159.197 32.316 159.109 31.8574 159.109H29.905V160.141ZM29.4296 156.337V163.419H30.6435V157.39H33.7289V156.337H29.4296ZM36.4264 165.644V158.765H35.3238V165.644H36.4264ZM40.2806 161.092C40.2806 160.573 40.1761 160.131 39.967 159.767C39.758 159.403 39.4815 159.126 39.1375 158.937C38.7936 158.742 38.4193 158.644 38.0146 158.644C37.6167 158.644 37.2694 158.745 36.9727 158.947C36.6827 159.143 36.4568 159.423 36.2949 159.787C36.1398 160.151 36.0622 160.586 36.0622 161.092C36.0622 161.591 36.1398 162.026 36.2949 162.397C36.4568 162.761 36.6827 163.044 36.9727 163.247C37.2694 163.442 37.6167 163.54 38.0146 163.54C38.4193 163.54 38.7936 163.446 39.1375 163.257C39.4815 163.061 39.758 162.781 39.967 162.417C40.1761 162.046 40.2806 161.605 40.2806 161.092ZM39.1476 161.092C39.1476 161.402 39.0836 161.669 38.9554 161.891C38.8273 162.107 38.6553 162.272 38.4395 162.387C38.2304 162.495 37.9978 162.549 37.7415 162.549C37.5324 162.549 37.3267 162.495 37.1244 162.387C36.9221 162.272 36.7535 162.107 36.6186 161.891C36.4905 161.675 36.4264 161.409 36.4264 161.092C36.4264 160.775 36.4905 160.509 36.6186 160.293C36.7535 160.077 36.9221 159.915 37.1244 159.807C37.3267 159.693 37.5324 159.635 37.7415 159.635C37.9978 159.635 38.2304 159.693 38.4395 159.807C38.6553 159.915 38.8273 160.08 38.9554 160.303C39.0836 160.519 39.1476 160.782 39.1476 161.092ZM40.9672 161.092C40.9672 161.564 41.0751 161.986 41.2909 162.357C41.5135 162.721 41.8136 163.007 42.1912 163.216C42.5689 163.419 42.9972 163.52 43.476 163.52C43.9548 163.52 44.3797 163.419 44.7506 163.216C45.1283 163.007 45.4284 162.721 45.6509 162.357C45.8735 161.986 45.9848 161.564 45.9848 161.092C45.9848 160.613 45.8735 160.192 45.6509 159.827C45.4284 159.463 45.1283 159.18 44.7506 158.978C44.3797 158.769 43.9548 158.664 43.476 158.664C42.9972 158.664 42.5689 158.769 42.1912 158.978C41.8136 159.18 41.5135 159.463 41.2909 159.827C41.0751 160.192 40.9672 160.613 40.9672 161.092ZM42.0901 161.092C42.0901 160.802 42.1508 160.546 42.2722 160.323C42.3936 160.101 42.5588 159.929 42.7679 159.807C42.9769 159.686 43.213 159.625 43.476 159.625C43.7323 159.625 43.9649 159.686 44.174 159.807C44.3898 159.929 44.5584 160.101 44.6798 160.323C44.8012 160.546 44.8619 160.802 44.8619 161.092C44.8619 161.382 44.8012 161.638 44.6798 161.861C44.5584 162.077 44.3898 162.249 44.174 162.377C43.9649 162.498 43.7323 162.559 43.476 162.559C43.213 162.559 42.9769 162.498 42.7679 162.377C42.5588 162.249 42.3936 162.077 42.2722 161.861C42.1508 161.638 42.0901 161.382 42.0901 161.092ZM47.7498 161.092C47.7498 160.802 47.8139 160.546 47.942 160.323C48.0701 160.101 48.2421 159.925 48.4579 159.797C48.6805 159.669 48.9266 159.605 49.1964 159.605C49.4122 159.605 49.6213 159.639 49.8236 159.706C50.0259 159.774 50.2046 159.868 50.3597 159.989C50.5216 160.104 50.6396 160.239 50.7138 160.394V159.19C50.5519 159.028 50.3328 158.9 50.0563 158.806C49.7797 158.711 49.4763 158.664 49.1458 158.664C48.667 158.664 48.2354 158.769 47.8509 158.978C47.4733 159.18 47.1732 159.463 46.9506 159.827C46.7348 160.192 46.6269 160.613 46.6269 161.092C46.6269 161.564 46.7348 161.986 46.9506 162.357C47.1732 162.721 47.4733 163.007 47.8509 163.216C48.2354 163.419 48.667 163.52 49.1458 163.52C49.4763 163.52 49.7797 163.473 50.0563 163.378C50.3328 163.284 50.5519 163.156 50.7138 162.994V161.79C50.6396 161.938 50.525 162.073 50.3698 162.195C50.2147 162.316 50.036 162.41 49.8337 162.478C49.6314 162.545 49.4189 162.579 49.1964 162.579C48.9266 162.579 48.6805 162.515 48.4579 162.387C48.2421 162.259 48.0701 162.087 47.942 161.871C47.8139 161.648 47.7498 161.389 47.7498 161.092ZM51.9416 158.765V163.419H53.0443V158.765H51.9416ZM52.7105 161.274H54.0458C54.2953 161.274 54.4808 161.328 54.6022 161.436C54.7303 161.544 54.7944 161.699 54.7944 161.901C54.7944 162.029 54.764 162.141 54.7033 162.235C54.6494 162.33 54.5651 162.4 54.4504 162.448C54.3425 162.495 54.2076 162.518 54.0458 162.518H52.7105V163.419H54.1571C54.4808 163.419 54.7708 163.361 55.027 163.247C55.2833 163.132 55.4856 162.963 55.634 162.741C55.7824 162.512 55.8566 162.232 55.8566 161.901C55.8566 161.402 55.6913 161.038 55.3609 160.809C55.0372 160.573 54.6359 160.455 54.1571 160.455H52.7105V161.274ZM60.8197 161.092C60.8197 160.802 60.8838 160.546 61.0119 160.323C61.14 160.101 61.312 159.925 61.5278 159.797C61.7504 159.669 61.9965 159.605 62.2663 159.605C62.4821 159.605 62.6912 159.639 62.8935 159.706C63.0958 159.774 63.2745 159.868 63.4296 159.989C63.5915 160.104 63.7095 160.239 63.7837 160.394V159.19C63.6218 159.028 63.4027 158.9 63.1261 158.806C62.8496 158.711 62.5462 158.664 62.2157 158.664C61.7369 158.664 61.3053 158.769 60.9208 158.978C60.5432 159.18 60.2431 159.463 60.0205 159.827C59.8047 160.192 59.6968 160.613 59.6968 161.092C59.6968 161.564 59.8047 161.986 60.0205 162.357C60.2431 162.721 60.5432 163.007 60.9208 163.216C61.3053 163.419 61.7369 163.52 62.2157 163.52C62.5462 163.52 62.8496 163.473 63.1261 163.378C63.4027 163.284 63.6218 163.156 63.7837 162.994V161.79C63.7095 161.938 63.5949 162.073 63.4397 162.195C63.2846 162.316 63.1059 162.41 62.9036 162.478C62.7013 162.545 62.4888 162.579 62.2663 162.579C61.9965 162.579 61.7504 162.515 61.5278 162.387C61.312 162.259 61.14 162.087 61.0119 161.871C60.8838 161.648 60.8197 161.389 60.8197 161.092ZM65.2847 161.345H69.3716C69.385 161.284 69.3918 161.23 69.3918 161.183C69.3918 161.129 69.3918 161.082 69.3918 161.041C69.3918 160.549 69.2974 160.128 69.1085 159.777C68.9197 159.419 68.6499 159.146 68.2993 158.958C67.9553 158.762 67.5439 158.664 67.0651 158.664C66.6267 158.664 66.2389 158.745 65.9017 158.907C65.5645 159.069 65.2914 159.295 65.0823 159.585C64.88 159.875 64.7451 160.212 64.6777 160.596C64.6642 160.677 64.6541 160.758 64.6474 160.839C64.6406 160.92 64.6372 161.004 64.6372 161.092C64.6372 161.557 64.735 161.975 64.9306 162.346C65.1262 162.711 65.4027 162.997 65.7601 163.206C66.1176 163.415 66.5357 163.52 67.0145 163.52C67.4394 163.52 67.7935 163.469 68.0767 163.368C68.3667 163.26 68.6095 163.112 68.8051 162.923C69.0074 162.734 69.1861 162.515 69.3412 162.265L68.4004 161.881C68.3127 162.029 68.2048 162.161 68.0767 162.276C67.9486 162.383 67.8002 162.468 67.6316 162.528C67.4697 162.589 67.2809 162.62 67.0651 162.62C66.8021 162.62 66.5694 162.566 66.3671 162.458C66.1715 162.343 66.0164 162.174 65.9017 161.952C65.7938 161.723 65.7399 161.436 65.7399 161.092L65.7601 160.809C65.7601 160.539 65.8174 160.306 65.9321 160.111C66.0467 159.908 66.2019 159.757 66.3974 159.656C66.593 159.548 66.8122 159.494 67.055 159.494C67.291 159.494 67.49 159.541 67.6518 159.635C67.8137 159.723 67.9385 159.851 68.0261 160.02C68.1205 160.182 68.1812 160.374 68.2082 160.596H65.2847V161.345ZM72.6599 159.625C72.9229 159.625 73.159 159.686 73.368 159.807C73.5771 159.929 73.7423 160.101 73.8637 160.323C73.9851 160.546 74.0458 160.802 74.0458 161.092C74.0458 161.382 73.9851 161.638 73.8637 161.861C73.7423 162.077 73.5771 162.249 73.368 162.377C73.159 162.498 72.9229 162.559 72.6599 162.559C72.3969 162.559 72.1609 162.498 71.9518 162.377C71.7427 162.249 71.5741 162.077 71.446 161.861C71.3246 161.638 71.2639 161.382 71.2639 161.092L70.1006 160.485C70.1006 161.153 70.2118 161.712 70.4344 162.164C70.6569 162.616 70.9604 162.957 71.3448 163.186C71.736 163.409 72.1743 163.52 72.6599 163.52C73.1522 163.52 73.5839 163.415 73.9548 163.206C74.3324 162.997 74.6292 162.711 74.845 162.346C75.0608 161.975 75.1687 161.557 75.1687 161.092C75.1687 160.62 75.0608 160.202 74.845 159.838C74.6359 159.473 74.3459 159.187 73.975 158.978C73.6041 158.769 73.1826 158.664 72.7105 158.664L72.6599 159.625ZM70.7682 161.092H71.2639C71.2639 160.856 71.3044 160.647 71.3853 160.465C71.473 160.283 71.5842 160.131 71.7191 160.01C71.854 159.881 72.0024 159.787 72.1642 159.726C72.3328 159.659 72.4981 159.625 72.6599 159.625L72.7105 158.664C72.4205 158.664 72.1575 158.721 71.9214 158.836C71.6854 158.944 71.4797 159.103 71.3044 159.312C71.1358 159.521 71.0043 159.777 70.9098 160.08C70.8154 160.377 70.7682 160.714 70.7682 161.092ZM70.1006 160.485L71.1627 161.041L71.0616 159.979C71.0616 159.642 71.1054 159.312 71.1931 158.988C71.2808 158.664 71.4392 158.374 71.6685 158.118C71.9046 157.862 72.2317 157.659 72.6498 157.511C73.0207 157.383 73.3512 157.224 73.6412 157.035C73.9379 156.84 74.1773 156.614 74.3594 156.358C74.5415 156.101 74.6494 155.825 74.6831 155.528H73.6209C73.5737 155.771 73.4321 155.997 73.1961 156.206C72.96 156.408 72.6127 156.594 72.1541 156.762C71.6213 156.958 71.2032 157.228 70.8997 157.572C70.603 157.909 70.3939 158.32 70.2725 158.806C70.1579 159.291 70.1006 159.851 70.1006 160.485ZM76.5171 161.345H80.604C80.6175 161.284 80.6242 161.23 80.6242 161.183C80.6242 161.129 80.6242 161.082 80.6242 161.041C80.6242 160.549 80.5298 160.128 80.341 159.777C80.1521 159.419 79.8824 159.146 79.5317 158.958C79.1877 158.762 78.7763 158.664 78.2975 158.664C77.8591 158.664 77.4714 158.745 77.1342 158.907C76.7969 159.069 76.5238 159.295 76.3148 159.585C76.1124 159.875 75.9775 160.212 75.9101 160.596C75.8966 160.677 75.8865 160.758 75.8798 160.839C75.873 160.92 75.8696 161.004 75.8696 161.092C75.8696 161.557 75.9674 161.975 76.163 162.346C76.3586 162.711 76.6351 162.997 76.9925 163.206C77.35 163.415 77.7681 163.52 78.2469 163.52C78.6718 163.52 79.0259 163.469 79.3091 163.368C79.5991 163.26 79.8419 163.112 80.0375 162.923C80.2398 162.734 80.4185 162.515 80.5736 162.265L79.6328 161.881C79.5452 162.029 79.4372 162.161 79.3091 162.276C79.181 162.383 79.0326 162.468 78.864 162.528C78.7021 162.589 78.5133 162.62 78.2975 162.62C78.0345 162.62 77.8018 162.566 77.5995 162.458C77.4039 162.343 77.2488 162.174 77.1342 161.952C77.0262 161.723 76.9723 161.436 76.9723 161.092L76.9925 160.809C76.9925 160.539 77.0499 160.306 77.1645 160.111C77.2791 159.908 77.4343 159.757 77.6298 159.656C77.8254 159.548 78.0446 159.494 78.2874 159.494C78.5234 159.494 78.7224 159.541 78.8842 159.635C79.0461 159.723 79.1709 159.851 79.2585 160.02C79.3529 160.182 79.4136 160.374 79.4406 160.596H76.5171V161.345ZM88.9282 159.777L88.9787 158.411L84.8008 162.407L84.7502 163.773L88.9282 159.777ZM85.8225 158.765H84.7502V163.773L85.8225 162.539V158.765ZM88.9787 158.411L87.9064 159.645V163.419H88.9787V158.411ZM96.1435 160.333L97.408 163.115L98.541 162.994L96.1435 158.411L93.746 162.994L94.879 163.115L96.1435 160.333ZM98.0656 163.419V164.329H99.1278V162.488H93.1593V164.329H94.2721V163.419H98.0656ZM101.341 165.644V158.765H100.239V165.644H101.341ZM105.195 161.092C105.195 160.573 105.091 160.131 104.882 159.767C104.673 159.403 104.396 159.126 104.052 158.937C103.708 158.742 103.334 158.644 102.929 158.644C102.532 158.644 102.184 158.745 101.887 158.947C101.597 159.143 101.372 159.423 101.21 159.787C101.055 160.151 100.977 160.586 100.977 161.092C100.977 161.591 101.055 162.026 101.21 162.397C101.372 162.761 101.597 163.044 101.887 163.247C102.184 163.442 102.532 163.54 102.929 163.54C103.334 163.54 103.708 163.446 104.052 163.257C104.396 163.061 104.673 162.781 104.882 162.417C105.091 162.046 105.195 161.605 105.195 161.092ZM104.062 161.092C104.062 161.402 103.998 161.669 103.87 161.891C103.742 162.107 103.57 162.272 103.354 162.387C103.145 162.495 102.913 162.549 102.656 162.549C102.447 162.549 102.242 162.495 102.039 162.387C101.837 162.272 101.668 162.107 101.533 161.891C101.405 161.675 101.341 161.409 101.341 161.092C101.341 160.775 101.405 160.509 101.533 160.293C101.668 160.077 101.837 159.915 102.039 159.807C102.242 159.693 102.447 159.635 102.656 159.635C102.913 159.635 103.145 159.693 103.354 159.807C103.57 159.915 103.742 160.08 103.87 160.303C103.998 160.519 104.062 160.782 104.062 161.092ZM110.205 158.765H109.032L107.575 162.417L108.091 162.448L106.604 158.765H105.349L107.221 162.872L106.007 165.644H107.17L110.205 158.765ZM110.9 158.765V163.419H111.982V159.726H113.571V158.765H110.9ZM118.526 159.777L118.576 158.411L114.398 162.407L114.348 163.773L118.526 159.777ZM115.42 158.765H114.348V163.773L115.42 162.539V158.765ZM118.576 158.411L117.504 159.645V163.419H118.576V158.411ZM124.448 163.419H125.611L124.317 158.411L123.74 159.929L124.448 163.419ZM122.172 162.468L122.475 163.732L124.418 160.202L124.317 158.411L122.172 162.468ZM122.475 163.732L122.779 162.468L120.655 158.411L120.553 160.202L122.475 163.732ZM119.37 163.419H120.533L121.241 159.929L120.655 158.411L119.37 163.419ZM130.09 160.991V161.466H131.436C131.571 161.466 131.685 161.48 131.78 161.507C131.881 161.534 131.959 161.574 132.012 161.628C132.073 161.682 132.12 161.743 132.154 161.81C132.188 161.878 132.205 161.952 132.205 162.033C132.205 162.188 132.144 162.323 132.023 162.437C131.901 162.552 131.706 162.609 131.436 162.609H130.09V163.419H131.77C132.302 163.419 132.683 163.297 132.913 163.055C133.149 162.805 133.267 162.505 133.267 162.154C133.267 161.851 133.193 161.615 133.044 161.446C132.896 161.277 132.694 161.159 132.437 161.092C132.181 161.025 131.891 160.991 131.567 160.991H130.09ZM130.09 161.193H131.466C131.756 161.193 132.019 161.153 132.255 161.072C132.498 160.984 132.694 160.856 132.842 160.687C132.99 160.512 133.065 160.293 133.065 160.03C133.065 159.726 132.99 159.484 132.842 159.301C132.694 159.113 132.498 158.978 132.255 158.897C132.019 158.809 131.756 158.765 131.466 158.765H130.09V159.575H131.335C131.544 159.575 131.706 159.625 131.82 159.726C131.942 159.827 132.002 159.956 132.002 160.111C132.002 160.185 131.985 160.256 131.952 160.323C131.918 160.391 131.874 160.451 131.82 160.505C131.766 160.559 131.695 160.6 131.608 160.627C131.527 160.654 131.436 160.667 131.335 160.667H130.09V161.193ZM129.453 158.765V163.419H130.525V158.765H129.453ZM138.784 158.765V163.419H139.887V158.765H138.784ZM134.273 158.765V163.419H135.365V158.765H134.273ZM135.031 161.274H136.377C136.62 161.274 136.805 161.328 136.933 161.436C137.061 161.544 137.125 161.699 137.125 161.901C137.125 162.029 137.095 162.141 137.034 162.235C136.974 162.33 136.889 162.4 136.781 162.448C136.674 162.495 136.539 162.518 136.377 162.518H135.031V163.419H136.478C136.802 163.419 137.092 163.361 137.348 163.247C137.604 163.132 137.807 162.963 137.955 162.741C138.103 162.512 138.177 162.232 138.177 161.901C138.177 161.402 138.012 161.038 137.682 160.809C137.358 160.573 136.957 160.455 136.478 160.455H135.031V161.274ZM143.128 161.092C143.722 161.105 144.173 161.004 144.484 160.789C144.794 160.566 144.949 160.286 144.949 159.949C144.949 159.713 144.875 159.497 144.726 159.301C144.578 159.106 144.372 158.951 144.109 158.836C143.846 158.721 143.55 158.664 143.219 158.664C142.868 158.664 142.555 158.732 142.278 158.866C142.009 159.001 141.796 159.183 141.641 159.413C141.486 159.642 141.408 159.902 141.408 160.192H142.46C142.46 160.084 142.487 159.983 142.541 159.888C142.602 159.787 142.69 159.706 142.804 159.645C142.919 159.578 143.061 159.544 143.229 159.544C143.432 159.544 143.59 159.591 143.705 159.686C143.826 159.78 143.887 159.905 143.887 160.06C143.887 160.215 143.826 160.347 143.705 160.455C143.59 160.556 143.398 160.606 143.128 160.606V161.092ZM143.199 163.52C143.563 163.52 143.894 163.463 144.19 163.348C144.487 163.226 144.72 163.058 144.888 162.842C145.064 162.62 145.151 162.357 145.151 162.053C145.151 161.621 144.969 161.301 144.605 161.092C144.248 160.876 143.755 160.775 143.128 160.789V161.325C143.337 161.325 143.512 161.352 143.654 161.406C143.802 161.46 143.914 161.537 143.988 161.638C144.062 161.739 144.099 161.861 144.099 162.002C144.099 162.137 144.062 162.255 143.988 162.357C143.92 162.451 143.819 162.525 143.684 162.579C143.55 162.633 143.388 162.66 143.199 162.66C142.909 162.66 142.69 162.589 142.541 162.448C142.4 162.299 142.305 162.117 142.258 161.901H141.186C141.24 162.38 141.439 162.771 141.783 163.075C142.133 163.371 142.605 163.52 143.199 163.52ZM145.951 161.092C145.951 161.564 146.059 161.986 146.275 162.357C146.497 162.721 146.798 163.007 147.175 163.216C147.553 163.419 147.981 163.52 148.46 163.52C148.939 163.52 149.364 163.419 149.735 163.216C150.112 163.007 150.412 162.721 150.635 162.357C150.857 161.986 150.969 161.564 150.969 161.092C150.969 160.613 150.857 160.192 150.635 159.827C150.412 159.463 150.112 159.18 149.735 158.978C149.364 158.769 148.939 158.664 148.46 158.664C147.981 158.664 147.553 158.769 147.175 158.978C146.798 159.18 146.497 159.463 146.275 159.827C146.059 160.192 145.951 160.613 145.951 161.092ZM147.074 161.092C147.074 160.802 147.135 160.546 147.256 160.323C147.378 160.101 147.543 159.929 147.752 159.807C147.961 159.686 148.197 159.625 148.46 159.625C148.716 159.625 148.949 159.686 149.158 159.807C149.374 159.929 149.542 160.101 149.664 160.323C149.785 160.546 149.846 160.802 149.846 161.092C149.846 161.382 149.785 161.638 149.664 161.861C149.542 162.077 149.374 162.249 149.158 162.377C148.949 162.498 148.716 162.559 148.46 162.559C148.197 162.559 147.961 162.498 147.752 162.377C147.543 162.249 147.378 162.077 147.256 161.861C147.135 161.638 147.074 161.382 147.074 161.092ZM152.703 160.991V161.466H154.049C154.184 161.466 154.298 161.48 154.393 161.507C154.494 161.534 154.572 161.574 154.625 161.628C154.686 161.682 154.733 161.743 154.767 161.81C154.801 161.878 154.818 161.952 154.818 162.033C154.818 162.188 154.757 162.323 154.636 162.437C154.514 162.552 154.319 162.609 154.049 162.609H152.703V163.419H154.383C154.915 163.419 155.296 163.297 155.526 163.055C155.762 162.805 155.88 162.505 155.88 162.154C155.88 161.851 155.806 161.615 155.657 161.446C155.509 161.277 155.307 161.159 155.05 161.092C154.794 161.025 154.504 160.991 154.18 160.991H152.703ZM152.703 161.193H154.079C154.369 161.193 154.632 161.153 154.868 161.072C155.111 160.984 155.307 160.856 155.455 160.687C155.603 160.512 155.678 160.293 155.678 160.03C155.678 159.726 155.603 159.484 155.455 159.301C155.307 159.113 155.111 158.978 154.868 158.897C154.632 158.809 154.369 158.765 154.079 158.765H152.703V159.575H153.948C154.157 159.575 154.319 159.625 154.433 159.726C154.555 159.827 154.615 159.956 154.615 160.111C154.615 160.185 154.598 160.256 154.565 160.323C154.531 160.391 154.487 160.451 154.433 160.505C154.379 160.559 154.308 160.6 154.221 160.627C154.14 160.654 154.049 160.667 153.948 160.667H152.703V161.193ZM152.066 158.765V163.419H153.138V158.765H152.066ZM157.108 156.337L157.361 161.274H158.221L158.474 156.337H157.108ZM157.078 162.923C157.078 163.119 157.145 163.284 157.28 163.419C157.422 163.547 157.594 163.611 157.796 163.611C157.998 163.611 158.167 163.547 158.302 163.419C158.437 163.284 158.504 163.119 158.504 162.923C158.504 162.727 158.437 162.566 158.302 162.437C158.167 162.309 157.998 162.245 157.796 162.245C157.594 162.245 157.422 162.309 157.28 162.437C157.145 162.566 157.078 162.727 157.078 162.923Z" fill="white"/>
<circle cx="86.4163" cy="187.358" r="3.58278" fill="black"/>
<circle cx="99.9046" cy="187.358" r="3.58278" fill="black"/>
<path d="M90.5719 182.61C88.8859 182.188 87.8321 181.134 87.0488 179.561" stroke="black" stroke-width="1.26451" stroke-linecap="round"/>
<path d="M97.8799 178.726C99.2723 177.874 100.053 177.826 100.958 178.085C102.434 178.507 103.401 179.994 103.698 180.193" stroke="black" stroke-width="1.26451" stroke-linecap="round"/>
<path d="M90.5762 193.161C91.1049 193.954 92.1067 195.578 94.8465 194.945" stroke="black" stroke-width="1.26451" stroke-linecap="round"/>
<path d="M341.854 147.315C338.903 147.315 337.007 122.236 320.568 122.236H350.916C334.899 122.236 344.805 147.315 341.854 147.315Z" fill="#2388FF"/>
</svg>
